<svg width="87" height="87" viewBox="0 0 87 87" fill="none" xmlns="http://www.w3.org/2000/svg">
<path d="M86.65 72.456L84.858 70.792L81.274 74.12L70.906 57.48C67.2367 51.5067 62.2873 46.8133 56.058 43.4C59.642 40.4133 63.1407 37.5547 66.554 34.824C69.9673 32.0933 73.466 29.4907 77.05 27.016L63.866 12.296C57.5513 18.6107 50.6393 24.3707 43.13 29.576C43.13 19.4213 45.6047 9.77866 50.554 0.647995H48.378C43.258 9.26666 40.698 18.3973 40.698 28.04V51.208C40.698 59.2293 38.2233 65.2027 33.274 69.128C33.1033 69.2987 31.5673 70.152 28.666 71.688C25.85 73.224 21.7113 75.4853 16.25 78.472L14.842 77.448C18.5967 74.2907 21.5407 71.7307 23.674 69.768C25.8927 67.8053 27.3433 66.4827 28.026 65.8C32.2927 61.0213 34.426 55.9013 34.426 50.44V24.84C34.426 17.7573 36.6873 10.0347 41.21 1.672V0.775993C36.6873 2.39733 33.3167 3.20799 31.098 3.20799C30.586 3.20799 29.7753 3.12266 28.666 2.952C27.642 2.78133 26.2767 2.52533 24.57 2.184C21.242 1.416 18.554 1.032 16.506 1.032C7.46067 1.032 2.12733 6.664 0.506 17.928L0.89 18.056C3.79133 13.448 7.71667 11.144 12.666 11.144L22.01 11.784C24.9113 11.9547 29.69 9.94933 36.346 5.768L36.602 6.28C31.3113 10.2907 27.5993 14.0027 25.466 17.416C22.8207 21.5973 21.498 26.632 21.498 32.52C19.194 31.4107 16.7193 30.856 14.074 30.856C9.63667 30.856 6.43667 33.3733 4.474 38.408C7.37533 37.5547 9.55133 37.128 11.002 37.128L13.306 37.384C16.634 37.7253 19.1087 39.688 20.73 43.272C22.01 46.088 22.65 49.3733 22.65 53.128C20.1753 51.7627 17.4447 51.08 14.458 51.08C10.5327 51.08 8.14333 53.2987 7.29 57.736C9.338 56.7973 11.002 56.328 12.282 56.328C14.9273 56.328 16.6767 57.7787 17.53 60.68L17.914 64.136C17.914 68.0613 16.25 71.8587 12.922 75.528C10.9593 77.576 9.21 79.368 7.674 80.904C6.22333 82.44 5.02867 83.6773 4.09 84.616L5.626 86.536C8.27133 85.6827 10.618 85 12.666 84.488C14.714 83.8907 16.506 83.3787 18.042 82.952C22.2233 82.0133 25.6793 81.544 28.41 81.544C34.298 81.544 41.4233 83.208 49.786 86.536L63.354 71.048C64.4633 73.0107 65.402 74.6747 66.17 76.04C67.0233 77.32 67.7487 78.3867 68.346 79.24C69.2847 80.6053 70.1807 81.8853 71.034 83.08C71.9727 84.2747 72.9113 85.384 73.85 86.408L86.65 72.456ZM63.354 34.184C59.8553 36.8293 56.698 39.3467 53.882 41.736L44.794 49.416L43.13 49.288V32.648L54.65 24.2L63.354 34.184ZM61.946 68.36L56.314 74.76C50.426 72.1147 43.7273 70.792 36.218 70.792L34.554 70.536C39.418 66.0987 42.2767 60.296 43.13 53.128L43.514 53C47.6953 53 51.4073 54.6213 54.65 57.864C55.5887 58.8027 56.6553 60.168 57.85 61.96C59.13 63.752 60.4953 65.8853 61.946 68.36Z" fill="black"/>
</svg>
